<svg width="65" height="65" viewBox="0 0 65 65" fill="none" xmlns="http://www.w3.org/2000/svg">
<path fill-rule="evenodd" clip-rule="evenodd" d="M35.6497 23.2083C38.5893 22.9976 42.6196 23.5807 43.4698 26.9348C43.7335 28.1553 44.253 28.6909 45.1259 29.4892C50.6662 36.5852 31.3358 37.7779 30.3421 30.8584C28.2486 31.6213 25.9697 31.7829 23.875 32.5541C22.7389 32.974 21.7087 33.6367 20.7215 34.3296C16.6959 37.1907 12.7273 40.1335 8.716 43.0152C10.2683 43.7304 13.2195 46.4614 12.0169 48.2965C11.7368 48.654 11.3209 48.9004 10.9531 49.1617L10.7591 49.3003C10.3419 49.5995 9.63943 50.1095 9.25099 50.3867L9.17935 50.4389C9.15126 50.4592 9.11957 50.4821 9.09096 50.5025C11.8922 54.6007 15.1705 58.3821 18.807 61.7582C19.1166 62.0463 18.9898 62.6903 18.5416 62.7653L18.0077 62.8437C16.2838 63.095 14.5271 63.3211 12.7899 63.1847C11.0979 63.0005 10.0784 61.5018 8.92172 60.4161C6.61201 58.0537 4.46194 55.5337 2.50356 52.8716L2.46278 52.8154C1.85328 51.982 1.04427 51.1302 0.985062 50.0539C0.877079 49.7303 1.16125 49.2667 1.43431 49.0461L1.52753 48.9115C2.99203 46.8038 4.64949 44.7712 6.72607 43.2449C6.71835 43.0174 6.82343 42.7783 7.0315 42.6276L15.71 36.343C17.9492 34.8009 20.0305 32.9887 22.4576 31.7435C24.9394 30.5478 27.7401 30.5008 30.2834 29.5028C30.3373 28.7836 31.8485 28.6 31.8008 28.711C33.3952 27.748 34.216 26.6022 34.4692 25.5491C34.7223 24.496 34.4077 23.5356 35.6497 23.2083ZM57.111 45.7718C59.7946 41.7312 62.3525 46.2017 63.4696 48.8961C64.7896 52.5834 62.0561 57.1191 60.2903 60.2979C59.6398 61.1807 58.7844 63.0426 57.638 63.1776C54.7496 63.1658 51.8573 62.9623 48.9673 62.9017C47.1011 62.4384 49.7194 59.6322 51.528 60.6572C52.0759 60.8624 52.3497 61.4849 52.884 61.6846C53.0787 61.7262 53.0921 61.6393 53.1713 61.4453L53.1825 61.4182C53.3237 61.0825 53.4606 60.745 53.5997 60.4084C54.7763 57.5089 56.0202 54.6348 57.2571 51.7621C57.5213 51.1384 57.1507 50.6245 56.669 50.2533C56.3001 49.9494 54.7145 49.2077 56.2085 49.5342C55.6332 48.198 56.3245 46.8417 57.111 45.7718ZM50.4486 40.2407C50.707 40.2084 51.0388 40.4689 51.0786 40.7214C51.4081 42.8137 51.0409 44.8823 50.6007 46.9291L50.5197 47.3038C50.3573 48.0503 50.1759 48.8115 49.7709 49.4658C49.3577 50.1336 48.7325 50.6368 48.0148 50.9428C45.7125 51.8609 42.8491 50.953 41.1554 49.2365C40.0719 47.7513 41.0244 45.8856 41.2063 44.2578C41.0344 43.8192 40.971 43.3119 40.8716 42.8597L40.8595 42.8057L40.4733 41.1187C40.3882 40.7466 40.6592 40.2374 41.1045 40.2885C44.2093 40.6448 47.3475 40.6288 50.4486 40.2407Z" fill="white"/>
<path fill-rule="evenodd" clip-rule="evenodd" d="M61.2917 45.2431C61.2824 45.2015 61.3322 45.1697 61.3646 45.201C61.9108 45.7277 62.2965 46.401 62.72 47.0249C63.1232 47.6191 63.562 48.1904 63.8628 48.8461C64.1422 49.4557 64.3225 50.0741 64.3761 50.744C64.4298 51.4091 64.3603 52.0757 64.243 52.7308C64.0124 54.0214 63.5193 55.2434 62.978 56.4303C62.4518 57.5842 61.8571 58.7052 61.2292 59.8059L61.0041 60.1988C60.7296 60.6772 60.4521 61.1548 60.1549 61.6182C59.7851 62.195 59.4476 62.7903 58.96 63.2717C58.6138 63.6143 57.9613 63.2717 58.1191 62.7821C58.1875 62.5689 58.2412 62.3681 58.3475 62.1702C58.4281 62.0195 58.519 61.8731 58.6045 61.7246C58.7754 61.4274 58.9447 61.1292 59.1156 60.8321C59.4745 60.2076 59.8525 59.5947 60.208 58.9681C60.8249 57.8815 61.4073 56.7746 61.9223 55.6354L61.9829 55.5009C62.4568 54.446 62.9058 53.3534 63.1139 52.2122C63.333 51.01 63.1369 49.8768 62.7101 48.7468C62.4893 48.1624 62.2411 47.5912 61.9831 47.0221L61.9335 46.9134C61.6843 46.3703 61.4201 45.8301 61.2917 45.2431ZM34.7671 24.4476C34.772 24.4263 34.8082 24.4247 34.8115 24.4476C34.9649 25.4686 34.6236 26.5485 34.0675 27.3977C33.764 27.8615 33.3898 28.2804 32.9488 28.617L32.9144 28.6429C32.4639 28.98 31.8551 29.3054 31.2959 29.0869C31.2783 29.0802 31.2619 29.0726 31.2466 29.0638C31.3096 29.1614 31.3677 29.2639 31.4268 29.3664C31.6027 29.6718 31.7605 29.9881 31.9319 30.2962C32.2387 30.8472 32.6042 31.34 33.066 31.7715C34.9128 33.4964 37.506 33.9064 39.9413 33.8867L40.1133 33.8851C41.183 33.8776 42.5821 33.9322 43.4079 33.1575C43.8517 32.7414 44.096 32.1498 44.3168 31.5944C44.5338 31.05 44.6822 30.4881 44.8625 29.9344C44.4861 29.6762 44.141 29.361 43.8698 28.9925C43.5871 28.6088 43.3734 28.1768 43.2501 27.7157L43.232 27.6468C43.1366 27.2791 43.0408 26.7928 43.1943 26.4454C43.2118 26.4054 43.2775 26.4082 43.2962 26.4454C43.3789 26.6116 43.3948 26.7991 43.4457 26.9767C43.5049 27.1834 43.5717 27.389 43.6599 27.5847C43.8303 27.964 44.0555 28.3248 44.3256 28.6406C44.5486 28.902 44.7902 29.1422 45.0663 29.3439C45.229 29.0627 45.6065 29.0249 45.9226 29.1175C46.3463 29.2414 46.7643 29.4004 47.1728 29.5684L47.2544 29.6022C47.6582 29.7699 48.1146 29.924 48.4926 30.1526C48.7221 30.2622 48.9424 30.3724 49.1495 30.47C50.1813 30.9551 51.1979 31.4698 52.21 31.9944L52.4268 32.107C52.8508 32.3279 53.271 32.5511 53.6397 32.8592C54.015 33.1728 54.3065 33.6015 54.5804 34.0033C55.2066 34.9222 55.7966 35.8673 56.4157 36.7911C57.6659 38.6551 58.9161 40.519 60.1735 42.3786C60.4775 42.8288 60.8205 43.2679 61.0933 43.7371C61.3547 44.1857 61.3475 44.6461 61.2966 45.1466L61.287 45.2386C61.1893 46.1567 61.0214 47.0385 60.5066 47.8258C59.6963 49.0637 58.4198 49.8346 57.0693 50.3652C57.2342 50.488 57.3893 50.6207 57.5859 50.7052C57.8884 50.8345 58.211 50.9015 58.5381 50.9283C58.8871 50.9563 59.2805 50.8691 59.5632 51.1064C59.6766 51.2012 59.6799 51.4294 59.5632 51.5242C59.2914 51.7462 58.9401 51.6826 58.6089 51.6454L58.5891 51.6432C58.2817 51.6092 57.9788 51.5522 57.69 51.4392C57.6188 51.4112 57.5481 51.38 57.4797 51.3455C57.4818 51.3515 57.4829 51.3587 57.4818 51.3663C57.4325 51.744 57.3256 52.1011 57.2127 52.4621L57.1411 52.6908C56.9954 53.1579 56.8485 53.6239 56.6973 54.0899C56.4096 54.977 56.0961 55.8557 55.7816 56.7334L55.5101 57.4907C55.2312 58.2676 54.9489 59.0434 54.6368 59.8074C54.444 60.2788 54.25 60.7503 54.0566 61.2213C53.8676 61.6812 53.7104 62.1779 53.4759 62.616C53.2831 62.9767 52.7571 62.7184 52.8415 62.3479C52.9522 61.8617 53.1609 61.3792 53.3203 60.906C53.4825 60.4258 53.6414 59.945 53.8063 59.4658C54.0931 58.6334 54.4107 57.8121 54.73 56.9916L55.0464 56.1781C55.3568 55.3812 55.6708 54.585 56.0065 53.7983L56.0431 53.7121C56.3919 52.8892 56.7519 51.964 57.3854 51.3263C57.3936 51.3176 57.4051 51.3131 57.4167 51.312C57.2611 51.2276 57.1153 51.1251 56.9871 51.0039L56.9809 50.9976C56.9302 50.9439 56.7209 50.6794 56.6535 50.5209C56.5658 50.5522 56.4782 50.5823 56.3905 50.6119C56.2377 50.6635 56.1111 50.6262 56.0218 50.5445L55.8517 50.6498C55.6698 50.761 55.4743 50.8664 55.2734 50.8718C55.0203 50.8784 54.8214 50.7386 54.6861 50.5325C54.5645 50.3482 54.4922 50.1492 54.3382 49.9842C54.1869 49.822 54.0117 49.6851 53.8326 49.5544L53.6216 49.4008C53.2346 49.1181 52.8594 48.8324 52.5478 48.459C52.3911 48.2705 52.1813 48.0468 52.086 47.8203C52.0674 47.7766 52.0559 47.7354 52.0537 47.6954C52.0329 47.8368 52.0115 47.9788 51.9901 48.1202C51.691 50.1109 51.4494 52.1152 51.3721 54.1283C51.3343 55.1211 51.3173 56.1151 51.3617 57.1084C51.3836 57.6046 51.4198 58.1002 51.4697 58.5947C51.4943 58.8425 51.5201 59.0898 51.5502 59.3365L51.5571 59.3936C51.5659 59.4692 51.5716 59.5423 51.565 59.6117C51.806 59.7306 51.9446 60.0311 52.0411 60.2657C52.1145 60.4444 52.0575 60.6182 51.9392 60.7438C52.0805 60.8726 52.2065 61.0239 52.3123 61.1971C52.3336 61.2322 52.2876 61.2597 52.2602 61.2377C52.0865 61.0996 51.8997 60.9861 51.7047 60.8989C51.6022 60.9378 51.4905 60.9483 51.3875 60.9197C51.2757 60.889 51.1793 60.8145 51.1097 60.7197C50.5558 60.6286 49.98 60.7399 49.4815 61.087C49.3779 61.1593 49.2842 61.241 49.195 61.3298C49.1796 61.3452 49.1637 61.3649 49.1478 61.3841L49.2566 61.4259C49.3017 61.443 49.3386 61.4564 49.3527 61.4592C49.4477 61.4786 49.5441 61.4889 49.6405 61.4973L49.785 61.5091C50.34 61.5551 50.8933 61.5705 51.4094 61.8029C51.5179 61.8517 51.4801 62.019 51.3776 62.0469C51.0008 62.1492 50.6268 62.1413 50.2432 62.1139L50.1608 62.1078C49.8042 62.0804 49.4212 62.082 49.0733 61.9833C49.1566 62.2113 49.0432 62.5091 48.6953 62.5557C47.6505 62.6949 46.5992 62.6292 45.5533 62.537C44.4971 62.4438 43.4413 62.3556 42.3823 62.3003C38.9568 62.1199 35.526 62.1545 32.0973 62.2035L30.1598 62.2316C28.6146 62.2534 27.0692 62.2704 25.5241 62.2585L24.8009 62.2518C24.4952 62.2488 24.1894 62.2451 23.8841 62.2361L23.7009 62.23C23.3371 62.2169 22.8556 62.2717 22.5395 62.0562C22.2787 61.8786 22.2206 61.553 22.3778 61.2904C22.4233 61.2147 22.4858 61.1473 22.551 61.0815C22.6846 59.9385 22.7597 58.7899 22.8364 57.6419C23.1027 53.6245 22.9471 49.6279 22.3329 45.651C20.685 46.1549 19.0622 46.7869 17.4811 47.4651C16.6259 47.8319 15.7751 48.2123 14.9341 48.6115C14.1666 48.976 13.3957 49.4316 12.5756 49.6684C12.501 49.7346 12.3968 49.7661 12.3043 49.7368L12.2923 49.7326L12.2918 49.7326C12.2074 49.7523 12.1137 49.7403 12.0217 49.6849C12.0031 49.6736 11.9844 49.6623 11.9658 49.6506L11.9379 49.6328C11.6491 49.4508 11.3588 49.2266 11.1544 48.9525C10.9063 49.1827 10.6394 49.3938 10.377 49.6076C10.0921 49.84 9.80834 50.0736 9.52674 50.3093C9.41498 50.4031 9.29171 50.4924 9.1931 50.6004L9.17877 50.6163C9.17648 50.6189 9.17429 50.6214 9.17228 50.624C9.59906 50.9003 9.9727 51.3197 10.3074 51.6843C10.6669 52.0756 11.0139 52.4793 11.3581 52.8846L11.6913 53.2778C14.0474 56.0619 16.4277 58.9469 19.478 60.9932C19.9602 61.3167 19.5005 62.1045 19.0217 61.7739C18.1155 61.1495 17.2581 60.456 16.4347 59.7262C14.9916 58.4483 13.6932 57.0147 12.4775 55.5208C11.8623 54.7647 11.2651 53.9902 10.68 53.2106L10.4814 52.9461C10.2168 52.5934 9.95353 52.2396 9.70151 51.8778L9.64878 51.802C9.42773 51.4828 9.19265 51.1242 9.05011 50.7567C8.99532 50.812 8.93341 50.8586 8.84302 50.8937C8.68852 50.954 8.49896 50.8274 8.46116 50.6766C8.36912 50.311 8.68688 50.0933 8.94547 49.8992C9.25939 49.6646 9.57934 49.4382 9.89984 49.2129L10.0143 49.1319C10.4151 48.8474 10.818 48.5555 11.2547 48.3308C11.2678 48.3132 11.2837 48.2968 11.3018 48.2825C11.3226 48.2661 11.3429 48.2502 11.3637 48.2343C10.8422 47.3878 10.2702 46.5742 9.63193 45.8056C9.15201 45.2273 8.6425 44.6752 8.10341 44.1522L7.86123 43.9175C7.49492 43.5635 7.11403 43.2044 6.70747 42.8967L6.58019 43.0411C6.41024 43.2335 6.23861 43.4243 6.05716 43.605C5.69996 43.9603 5.34768 44.3227 4.99705 44.685C4.41476 45.2879 3.85219 45.9094 3.2914 46.5317L3.01107 46.8428C2.42705 47.4914 1.8014 48.1279 1.27052 48.8208L1.24401 48.8559C1.01224 49.167 0.84726 49.5112 0.954959 49.9064C1.05888 50.2873 1.30594 50.6251 1.5189 50.9541L1.54007 50.9869C2.40952 52.3422 3.34088 53.6628 4.33853 54.9266C6.33657 57.4577 8.61566 59.8567 11.3352 61.6166C11.7121 61.8605 11.3599 62.4669 10.9824 62.2202C9.39416 61.1813 7.93522 59.9335 6.59297 58.5936C5.36083 57.3639 4.2443 56.0098 3.19789 54.6201C2.68783 53.9419 2.19914 53.2495 1.73073 52.5418C1.27655 51.8548 0.751156 51.1482 0.421893 50.3905C0.249331 49.9919 0.185766 49.5604 0.327114 49.1405C0.45674 48.7545 0.713095 48.4341 0.979785 48.1326L1.00481 48.1043C1.61787 47.4152 2.24188 46.7343 2.87137 46.06C3.50305 45.3835 4.16376 44.7311 4.83818 44.0979C5.36795 43.5995 5.9202 43.1604 6.51079 42.7536C6.45764 42.7158 6.4045 42.6796 6.35026 42.6445C6.18536 42.5371 6.14372 42.3074 6.28836 42.1615C6.68336 41.7624 7.13863 41.4153 7.56706 41.052C7.96973 40.7104 8.37241 40.3683 8.77508 40.0262C9.59468 39.331 10.4143 38.6353 11.2339 37.9396C12.706 36.6902 14.1698 35.432 15.637 34.1771C16.2488 33.654 16.8663 33.1374 17.4822 32.6193L18.5764 31.6978L19.1116 31.2482C19.3858 31.0184 19.6659 30.7911 19.9777 30.6158C20.7114 30.2034 21.5935 30.025 22.4019 29.8065L22.4556 29.7918C23.3624 29.5435 24.274 29.3099 25.1905 29.1016C26.1082 28.8933 27.0297 28.7036 27.955 28.532C28.7867 28.3774 29.6381 28.2447 30.4861 28.225C30.6965 28.145 30.9606 28.117 31.1677 28.2025C31.2531 28.2382 31.3424 28.2902 31.4219 28.356C31.8366 28.2102 32.2459 28.1406 32.6332 27.8939C33.02 27.6478 33.3624 27.3243 33.6506 26.9679C34.2461 26.23 34.5578 25.3583 34.7671 24.4476ZM44.3004 49.4354C43.9717 49.4125 43.6759 49.5484 43.3822 49.6931C43.5477 49.7649 43.7131 49.8362 43.8786 49.9069L44.9798 50.3773C45.3436 50.5325 45.7287 50.6673 46.0744 50.8586C46.0991 50.8723 46.1188 50.8888 46.1336 50.908C46.493 50.6778 46.8732 50.4722 47.2375 50.2534C47.3208 50.2035 47.4046 50.1536 47.4885 50.1037C47.0546 50.249 46.6097 50.3219 46.1385 50.1854C45.5101 50.004 44.9645 49.482 44.3004 49.4354ZM45.2011 48.3324L45.1421 48.2922C44.8232 48.0734 44.4428 47.7921 44.0555 47.9887C43.8731 48.0813 43.7235 48.231 43.5438 48.3308C43.363 48.4316 43.1642 48.5089 42.9626 48.5555C42.6278 48.6328 42.2443 48.6443 41.8844 48.5697L41.8899 49.0566C42.1621 49.169 42.4328 49.2842 42.7034 49.4003C42.8791 49.3402 43.0482 49.268 43.2261 49.1888L43.3461 49.135C43.6885 48.9809 44.0342 48.8779 44.4127 48.9267C45.1255 49.0182 45.6641 49.5484 46.3456 49.7249C47.1811 49.942 47.9349 49.3181 48.7244 49.1641C48.8546 49.1384 48.9887 49.1234 49.1221 49.1211L49.1665 49.1207L49.1862 49.1092C49.3561 49.0095 49.6103 48.9141 49.7286 48.7463C49.8574 48.5643 49.8683 48.2595 49.9105 48.0457C49.9149 48.0243 49.9193 48.0024 49.9231 47.981C49.8486 47.981 49.773 47.9848 49.6963 47.9991C49.4552 48.0435 49.2284 48.129 49.0038 48.2245C48.5792 48.4048 48.1639 48.6103 47.7169 48.7304C47.2791 48.8482 46.8217 48.9042 46.3708 48.839C45.9309 48.7753 45.5654 48.5769 45.2011 48.3324ZM45.2697 46.6208L45.2037 46.5782C45.0296 46.4671 44.8299 46.3519 44.6165 46.3928C44.4259 46.4295 44.2621 46.5814 44.0961 46.6751C43.7317 46.8807 43.323 46.9931 42.9061 47.0216C42.5593 47.0452 42.1994 47.0029 41.8657 46.8999L41.8772 47.9777C41.9994 48.0166 42.126 48.0446 42.2591 48.0544C42.6634 48.0846 43.0579 47.9876 43.397 47.7644L43.5686 47.6505C43.8621 47.4574 44.1376 47.3043 44.5261 47.3747C44.9107 47.4448 45.2334 47.6915 45.5479 47.9064L45.5995 47.9411C45.9606 48.1796 46.3267 48.3337 46.7696 48.3373C47.2479 48.3411 47.7207 48.2079 48.1661 48.044C48.6082 47.8818 49.0284 47.6871 49.5012 47.6274C49.6459 47.6093 49.8223 47.6038 49.9883 47.6323C50.0102 47.5101 50.031 47.3884 50.0507 47.2661C50.0935 47.0035 50.1302 46.7414 50.162 46.4788C49.3232 46.253 48.5485 46.9838 47.7695 47.2091C47.3175 47.3396 46.8255 47.338 46.3735 47.2118C45.9553 47.095 45.6265 46.8526 45.2697 46.6208ZM45.2718 44.8057C45.0926 44.7711 44.9157 44.8539 44.7634 44.9389C44.3749 45.1544 44.0396 45.4542 43.5997 45.5677C43.0338 45.7135 42.4147 45.588 41.8526 45.3495C41.8548 45.6822 41.8575 46.015 41.8603 46.3478C41.966 46.3879 42.0745 46.4202 42.1851 46.4459C42.5785 46.5359 42.9954 46.5238 43.3828 46.4103C43.7778 46.2946 44.0807 45.9821 44.4768 45.8846C44.8819 45.7844 45.2637 45.9792 45.5901 46.2006L45.6883 46.2677C46.0614 46.5211 46.4233 46.7412 46.8901 46.7842C47.3838 46.8297 47.8127 46.6751 48.2538 46.4701L48.3564 46.4226C48.9148 46.1659 49.6396 45.8738 50.197 46.1658C50.2408 45.7513 50.2726 45.3369 50.294 44.9219C50.2173 44.8934 50.1378 44.8725 50.0464 44.872C49.8278 44.8709 49.5982 44.94 49.3944 45.0118C48.949 45.1691 48.5343 45.4037 48.0932 45.5721C47.6752 45.7322 47.2123 45.8155 46.7663 45.7437C46.3532 45.6773 46.0432 45.4613 45.7577 45.1653L45.7163 45.1215C45.5911 44.9883 45.4572 44.8417 45.2718 44.8057ZM45.5989 43.2668C45.3923 43.1577 45.1408 43.0563 44.902 43.088C44.6741 43.1181 44.5222 43.2728 44.3818 43.4382L44.3058 43.5287C44.0548 43.826 43.8077 44.0759 43.4206 44.1982C43.0195 44.3243 42.5944 44.275 42.2213 44.0902C42.0887 44.0244 41.9655 43.9427 41.8416 43.8622L41.8482 44.7365C42.0958 44.8599 42.3479 44.9712 42.6245 45.0387C43.1351 45.1631 43.569 45.071 44.0057 44.7892L44.0515 44.7594C44.3804 44.5432 44.7176 44.2859 45.1239 44.2618C45.5203 44.2381 45.8178 44.458 46.0789 44.7272L46.1095 44.7591C46.4387 45.1066 46.7713 45.2761 47.2611 45.236C47.7359 45.1972 48.1803 44.9874 48.6153 44.8067L48.6548 44.7903C49.0526 44.6269 49.5111 44.4586 49.9478 44.5211C50.0524 44.5359 50.1877 44.5683 50.3083 44.6248C50.3258 44.2157 50.334 43.8062 50.3357 43.3962C50.0875 43.1808 49.7012 43.1451 49.3906 43.2333C48.9041 43.3715 48.5058 43.7278 48.0412 43.9214C47.6292 44.093 47.1997 44.1313 46.7795 43.969C46.3456 43.8013 46.0054 43.4817 45.5989 43.2668ZM50.3082 41.5442C49.5812 41.5695 48.8701 42.0426 48.176 42.2229C47.4006 42.4243 46.7677 42.1498 46.077 41.8451L45.9878 41.8058C45.6334 41.6501 45.2526 41.5102 44.8598 41.5738C44.4768 41.6364 44.1383 41.8485 43.809 42.0404L43.7459 42.0767C43.1461 42.4184 42.5353 42.6524 41.8351 42.594C41.8389 42.8139 41.8373 43.0332 41.8378 43.2481C41.9529 43.3139 42.0635 43.3885 42.1687 43.4565L42.2065 43.4804C42.5403 43.6893 42.8844 43.8266 43.2825 43.6977C43.6671 43.5727 43.8479 43.2377 44.112 42.962C44.3547 42.7087 44.6713 42.5547 45.0263 42.5694C45.4082 42.5847 45.7692 42.7531 46.0848 42.9587C46.4004 43.1643 46.7055 43.4301 47.0748 43.5332C47.9031 43.7634 48.6126 42.8869 49.396 42.7503C49.7247 42.6928 50.0874 42.7657 50.3356 42.9641C50.3329 42.4916 50.3225 42.0179 50.3082 41.5442ZM44.0506 41.3458C43.9482 41.3496 43.8457 41.354 43.7433 41.3584C43.3641 41.3748 42.985 41.3935 42.6059 41.4149C42.3435 41.4291 42.0208 41.5097 41.7633 41.4297C41.7567 41.456 41.748 41.4812 41.7364 41.5059C41.7753 41.6999 41.7995 41.9006 41.8142 42.1034C42.052 42.1292 42.2936 42.1204 42.5281 42.0716C43.0908 41.9549 43.5477 41.5996 44.0506 41.3458ZM50.2973 41.183C48.9129 41.2784 47.5179 41.2455 46.1312 41.2755L45.9648 41.2794C45.9582 41.2794 45.9517 41.28 45.9451 41.28C46.1041 41.3417 46.2619 41.4123 46.4191 41.4842L46.5762 41.5563C46.9477 41.7274 47.3257 41.8672 47.7415 41.837C48.1869 41.8047 48.6066 41.6227 49.023 41.4757C49.4202 41.3354 49.8776 41.2411 50.3011 41.3025C50.3 41.2625 50.2989 41.223 50.2973 41.183Z" fill="#111111"/>
<path fill-rule="evenodd" clip-rule="evenodd" d="M48.3713 13.2545C48.1781 11.6969 47.5709 10.0432 46.9324 8.59107C45.4966 5.52094 42.2095 5.09824 39.2627 4.46525C36.3548 4.03774 33.2756 3.65173 30.4116 4.50468C28.8015 4.903 28.1726 6.83944 28.4267 8.36757C28.5718 9.3198 29.001 10.221 29.367 11.1035C30.0945 12.9159 30.556 14.8561 30.5568 16.8183C30.5069 18.1006 30.3277 19.5643 31.7869 20.1074C33.1755 20.8047 33.2928 22.695 35.0315 23.7675C35.7346 25.2056 37.6497 25.3321 39.0281 25.6657C39.8993 25.8341 40.7803 25.958 41.6638 26.0381C44.2218 26.3691 46.2682 25.6205 47.6073 23.3194C48.5033 21.9189 49.1706 20.3019 49.0058 18.6046C48.8416 16.8173 48.5681 15.0393 48.3713 13.2545Z" fill="white"/>
<path fill-rule="evenodd" clip-rule="evenodd" d="M39.2848 0.734004C39.4308 0.566893 39.6557 0.624209 39.7923 0.756352C39.8812 0.782801 39.9673 0.822134 40.0486 0.874191C40.2324 0.850371 40.4251 0.850371 40.6054 0.857049C40.6491 0.832282 40.696 0.81025 40.747 0.79132C41.1115 0.656759 41.4343 0.725117 41.7006 0.905268C41.8288 0.782749 41.9906 0.705872 42.1974 0.717493C42.382 0.727904 42.5136 0.815613 42.6263 0.931139C42.7387 0.767447 42.9204 0.650659 43.1468 0.634411C43.4633 0.611695 43.7675 0.739841 44.0196 0.938238C44.1665 0.768078 44.3668 0.670273 44.5899 0.669326C44.7368 0.642403 44.8917 0.653025 45.0318 0.695723C45.235 0.757719 45.4135 0.873876 45.5557 1.02463C45.7806 0.807147 46.0559 0.650659 46.3733 0.67348C46.7842 0.703453 47.1247 1.00849 47.283 1.38394C47.5611 1.49641 47.8178 1.65684 48.0323 1.88558C48.0438 1.89762 48.0547 1.91024 48.0662 1.92292C48.1818 1.96598 48.2906 2.02703 48.3864 2.10743C48.69 2.36251 48.7577 2.73165 48.6572 3.09337C48.6712 3.15127 48.6832 3.21016 48.6941 3.269C48.9784 3.31265 49.2367 3.47834 49.3836 3.74809C49.5845 4.11828 49.545 4.6062 49.3273 4.95961C49.2337 5.11163 49.115 5.23973 48.9816 5.35173C49.1324 5.69773 49.06 6.11061 48.8168 6.39046C48.7576 6.48695 48.6848 6.57403 48.603 6.65285C48.6933 7.01058 48.5326 7.37966 48.2118 7.5708L48.1844 7.64015C48.1798 7.65167 48.1751 7.66314 48.1703 7.6745C48.1668 7.68922 48.1624 7.70347 48.1581 7.71783C48.1504 7.84476 48.109 7.96933 48.0268 8.0867C47.8586 8.32723 47.6501 8.48408 47.5395 8.76487L47.5285 8.79437C47.4809 8.92725 47.3274 9.02101 47.1966 8.97999C47.9229 10.486 48.3036 12.1618 48.565 13.8041C48.6953 14.6234 48.7959 15.4456 48.8775 16.2709L48.9575 17.0927C49.0279 17.8232 49.0905 18.5562 49.0909 19.2891C49.092 20.9471 48.6223 22.5419 47.6142 23.8613C46.6608 25.1085 45.3116 26.0124 43.7875 26.3684C42.2139 26.7354 40.368 26.5908 38.9568 25.7506C38.5408 25.5035 38.9053 24.9092 39.3286 25.108C40.13 25.4845 40.9444 25.7643 41.8327 25.8268C42.6987 25.8883 43.5667 25.7789 44.3878 25.4929C45.7464 25.0192 46.9024 24.0269 47.6454 22.7912C48.0115 22.1822 48.2765 21.5213 48.4176 20.823C48.5933 19.9525 48.5668 19.0529 48.5023 18.1713L48.4978 18.1113C48.3702 16.4128 48.2021 14.7038 47.9302 13.0222C47.69 11.5352 47.3205 10.0784 46.8409 8.65371C46.653 8.4867 46.4429 8.34851 46.218 8.24356C44.5711 8.1741 42.9213 8.19439 41.2766 8.30913C39.8739 8.40762 38.478 8.57426 37.0927 8.81712L36.9443 8.84343C36.6376 8.89859 36.297 8.93014 36.0081 9.05482C35.7602 9.16209 35.6597 9.36821 35.5972 9.62161C35.44 10.2626 35.416 10.9641 35.3894 11.6214C35.3634 12.2639 35.4223 12.9118 35.3712 13.5522C35.328 14.0881 35.1921 14.6365 34.799 15.0241C34.5933 15.227 34.3402 15.338 34.1028 15.492C33.9492 15.5915 33.8841 15.694 33.9039 15.878C33.9466 16.2808 34.2678 16.7882 33.907 17.1332C33.8435 17.1936 33.7336 17.2015 33.6711 17.1332C33.5222 16.9697 33.3165 16.845 33.14 16.713C33.066 16.6584 33.1275 16.5522 33.2113 16.59C33.3217 16.64 33.4342 16.6989 33.5493 16.7504C33.2951 16.539 32.9338 16.4354 32.6328 16.3739C32.4813 16.3434 32.3219 16.3344 32.1642 16.3487C32.0475 16.4049 31.9283 16.457 31.809 16.5079C31.6575 16.5722 31.5044 16.6305 31.3503 16.6857C30.8155 17.1258 30.5604 17.8415 30.6718 18.5414C30.7327 18.9278 30.9092 19.348 31.242 19.5736C31.6362 19.8407 32.1642 19.7261 32.5901 19.9244C32.989 20.1099 33.2316 20.4849 33.4133 20.873L33.4891 21.0345C33.6578 21.3922 33.8312 21.7405 34.0616 22.066C34.3282 22.443 34.6547 22.7817 35.0109 23.0725C35.1837 23.2133 35.3678 23.3399 35.5582 23.4552L35.6102 23.4864C35.8029 23.6005 35.9409 23.7093 35.9539 23.9506C35.9581 24.0347 35.9055 24.1115 35.8378 24.1552C35.5462 24.3418 35.2561 24.1084 35.0135 23.9454C34.7516 23.7697 34.5011 23.5721 34.2694 23.3565C33.8289 22.9474 33.4477 22.4615 33.1546 21.934C32.9312 21.5324 32.8041 20.9671 32.4511 20.6558C32.2355 20.4659 31.9309 20.4644 31.6617 20.4296C31.4112 20.3971 31.1743 20.3445 30.9514 20.2199C30.0449 19.7114 29.7887 18.4804 30.0037 17.5292C30.0402 17.3687 30.0912 17.2126 30.1542 17.0622C29.8168 17.119 29.4377 16.7667 29.5747 16.4112C29.5851 16.3844 29.5971 16.3592 29.6085 16.3334C29.3862 16.1856 29.2107 15.9617 29.1274 15.6687C29.0847 15.5173 29.0784 15.3643 29.1008 15.2165C28.993 15.1435 28.904 15.043 28.8467 14.9194C28.6676 14.8358 28.5088 14.7107 28.414 14.5319C28.2828 14.2852 28.2994 14.0581 28.3994 13.8535C28.3854 13.8278 28.3718 13.8015 28.3588 13.7747C27.9917 13.5397 27.7355 13.1347 27.7647 12.6857C27.774 12.5368 27.8105 12.4028 27.8667 12.2819C27.862 12.2666 27.8574 12.2508 27.8532 12.2355C27.546 12.0778 27.2919 11.8186 27.2013 11.4726C27.1107 11.1245 27.2174 10.7774 27.4309 10.5103C27.1185 10.2795 26.9305 9.95715 27.0445 9.46965C27.0909 9.27146 27.1841 9.09105 27.3101 8.93908C27.3096 8.9344 27.3085 8.92967 27.3075 8.92488L27.2783 8.90199C26.8926 8.59464 26.6709 8.20296 26.9076 7.72125C27.0138 7.50465 27.1653 7.35369 27.3434 7.2543L27.3523 7.22591C27.2247 6.94985 27.1815 6.64328 27.2695 6.32095C27.3413 6.05545 27.5116 5.84402 27.7293 5.70367C27.7147 5.58478 27.7168 5.45811 27.7402 5.32081C27.7793 5.08897 27.8933 4.88652 28.0599 4.74297C28.0662 4.71242 28.074 4.6825 28.0828 4.65247C28.1391 4.46901 28.2443 4.26972 28.3661 4.12191C28.4666 3.99939 28.5791 3.95469 28.7165 3.94996C28.7082 3.83696 28.7139 3.72227 28.7368 3.60606C28.8071 3.2475 29.0331 2.91038 29.3679 2.75736C29.5054 2.69479 29.6502 2.67644 29.7897 2.69163C29.9084 2.43923 30.1402 2.2563 30.425 2.21686C30.5359 2.20108 30.639 2.20208 30.7338 2.21633C30.7874 2.19104 30.8431 2.16848 30.9014 2.14792C30.94 2.13425 30.979 2.12163 31.0181 2.10906C31.1498 1.94395 31.3232 1.81191 31.5258 1.73256C31.7596 1.64054 31.9975 1.64996 32.2084 1.72725L32.2756 1.71306C32.3808 1.52901 32.5484 1.38651 32.8062 1.32183C33.0988 1.24874 33.3993 1.35076 33.6294 1.53643C33.6305 1.53643 33.6315 1.53643 33.6331 1.53585C33.7534 1.26399 33.9591 1.07469 34.3043 1.08784C34.5193 1.09625 34.7136 1.2041 34.8635 1.35764C34.9468 1.34707 35.0302 1.33761 35.114 1.3282C35.2025 1.2235 35.3009 1.12575 35.4098 1.03794C35.5878 0.893805 35.8196 0.905426 35.9508 1.10835C35.9794 1.15252 36.006 1.19721 36.0325 1.24191L36.1528 1.23349C36.2944 1.04051 36.4876 0.910106 36.7521 0.899642C36.9948 0.889598 37.1677 1.00954 37.2994 1.17723C37.4067 1.1746 37.5145 1.17255 37.6223 1.17092C37.7477 1.02421 37.8956 0.894857 38.0643 0.787586C38.1935 0.705556 38.3841 0.733478 38.4887 0.842852C38.5594 0.917205 38.6252 0.994818 38.6864 1.07517C38.8442 0.896592 39.0572 0.778963 39.2848 0.734004ZM31.6211 17.4318C31.8642 17.292 32.1912 17.4434 32.4266 17.5623C32.7135 17.7069 32.9983 17.9251 33.1738 18.1985C33.4128 18.5708 32.851 18.8716 32.5995 18.5377C32.4448 18.3321 32.3214 18.1249 32.134 17.9451C31.9627 17.7799 31.7143 17.6695 31.6159 17.4518C31.6122 17.4445 31.6133 17.4361 31.6211 17.4318ZM31.7919 8.39535L31.7964 8.38222C31.8656 8.19118 31.5638 8.10884 31.4952 8.2983C31.3913 8.58545 31.5111 8.89764 31.792 9.02163C31.8698 9.05602 31.9587 9.04409 32.0057 8.96505C32.0451 8.89854 32.0268 8.78327 31.9496 8.74925C31.7916 8.67947 31.7387 8.55629 31.7919 8.39535ZM29.1919 7.86117C29.343 7.72656 29.1213 7.50407 28.971 7.63811C28.8307 7.76316 28.7266 7.933 28.7537 8.12835C28.7812 8.32744 28.9299 8.46799 29.0926 8.56733C29.2651 8.67265 29.4223 8.39995 29.2503 8.29489L29.2309 8.28295C29.1587 8.23767 29.0742 8.17542 29.062 8.08634C29.0491 7.99169 29.1284 7.91781 29.1919 7.86117ZM30.0494 5.48587L30.0601 5.47792C30.2223 5.36098 30.0665 5.08723 29.9024 5.20549C29.7519 5.31397 29.6312 5.45489 29.6185 5.64924C29.6061 5.83812 29.7013 6.00186 29.8258 6.13474C29.9642 6.28255 30.1849 6.05918 30.0467 5.91168C29.912 5.76793 29.8857 5.61106 30.0494 5.48587Z" fill="#111111"/>
<path fill-rule="evenodd" clip-rule="evenodd" d="M49.4579 15.8056C49.2816 16.291 49.0132 16.7963 48.685 17.2048C47.3571 18.3421 46.0669 17.7124 45.4117 16.171C45.1628 15.0817 45.8238 13.9084 46.5241 13.1071C47.5356 12.0817 49.1862 12.6199 49.6513 13.8388C49.6796 13.9967 49.6966 14.1542 49.7048 14.3113C49.6951 14.8216 49.6343 15.2577 49.4579 15.7425M36.6944 14.8267C38.4437 12.7222 41.7163 12.6097 41.6328 15.8487C41.257 19.9485 34.9294 18.9422 36.6944 14.8267ZM50.0081 13.0711C49.9468 12.9661 49.8788 12.8645 49.8045 12.7673C49.7771 12.7508 49.7613 12.6042 49.6604 12.5934C48.3118 11.0886 45.9426 11.9424 45.0865 13.4418C44.9302 13.6314 44.8027 13.8533 44.7086 14.0878C43.8652 13.9313 42.8819 13.9617 42.0974 14.284C41.3195 12.2296 38.9646 12.0462 37.4127 12.924C36.4474 13.4041 35.8215 14.4097 34.8828 14.962C32.676 15.1227 30.3076 14.6226 28.1406 15.1825C26.4316 15.5418 27.8603 16.4171 28.1469 15.833C30.1899 15.2225 32.6103 15.7384 34.7316 15.6008C34.9521 15.9782 35.3751 16.287 35.7967 16.2738C36.2519 20.3558 42.1375 19.6789 42.3406 16.0503C42.5709 15.682 42.8573 15.3295 43.2672 15.1001C43.4242 15.0672 43.5758 15.0245 43.7143 14.9584C43.9512 14.9246 44.3161 15.0262 44.534 15.2256C45.2803 19.7551 49.5802 19.2276 50.3487 15.2595C50.364 15.2438 50.4067 15.1846 50.4395 15.0897C50.7025 14.7379 51.3464 14.6072 51.2435 14.0134C51.1519 13.4195 50.4104 13.4265 50.0081 13.0711Z" fill="#111111"/>
<path fill-rule="evenodd" clip-rule="evenodd" d="M44.5714 22.316C44.123 22.4468 43.6417 22.4585 43.1846 22.3234C42.77 22.2009 42.3443 21.9312 42.0391 21.5744C41.768 21.2574 41.5925 20.8722 41.5994 20.461C41.6002 20.414 41.6168 20.3748 41.6425 20.3444C41.6701 20.3116 41.7087 20.2891 41.75 20.2794C41.7925 20.2693 41.8374 20.2729 41.8756 20.2904C41.9103 20.3062 41.9399 20.3331 41.9585 20.3725C42.0054 20.4345 42.0521 20.4956 42.099 20.555C42.476 21.0239 42.8412 21.3744 43.4082 21.5C43.7158 21.5682 44.023 21.538 44.3049 21.4339C44.6067 21.3225 44.8795 21.1267 45.0932 20.876C45.1898 20.7628 45.3039 20.7165 45.4154 20.7158C45.5418 20.7149 45.6667 20.774 45.7608 20.8686C45.8533 20.9615 45.9152 21.0877 45.9208 21.2198C45.9258 21.3357 45.8882 21.4568 45.7883 21.5649C45.4593 21.9207 45.0328 22.1814 44.5714 22.316ZM44.5576 16.4433C45.0173 16.7247 45.7177 17.3808 45.2232 18.0785C44.6411 18.6936 43.803 17.9883 43.39 17.6693C43.0071 17.4221 42.5768 18.0579 42.9321 18.3466C45.9164 20.5717 47.1275 16.5169 44.7901 16.1124C44.5327 16.0678 44.4372 16.3562 44.5576 16.4433ZM40.2575 15.2051C40.1097 15.1099 39.936 15.0772 39.7433 15.1655C39.5928 15.2344 39.3288 15.4642 39.1451 15.7664C39.0194 15.973 38.9303 16.2155 38.9488 16.468C38.9531 16.5267 38.9316 16.5699 38.8977 16.6019C38.8709 16.6272 38.8321 16.6457 38.7867 16.6515C38.748 16.6565 38.7048 16.652 38.6697 16.641C38.6028 16.62 38.5674 16.5763 38.5541 16.5406C38.4255 16.1966 38.4809 15.8126 38.6251 15.4662C38.8196 14.9987 39.173 14.6072 39.4045 14.4809C39.8006 14.2648 40.268 14.2549 40.6647 14.475C41.0024 14.6624 41.2135 14.9649 41.4235 15.2733C41.4682 15.3389 41.5125 15.4039 41.5583 15.4679C41.6501 15.596 41.6592 15.723 41.6237 15.832C41.5843 15.9527 41.4839 16.0545 41.3584 16.1078C41.2423 16.1571 41.1076 16.164 40.9885 16.1134C40.8878 16.0706 40.7954 15.9873 40.737 15.8458C40.6385 15.6076 40.4745 15.3448 40.2575 15.2051ZM47.7612 15.735C47.66 15.7881 47.5808 15.8041 47.4686 15.7702C47.4065 15.7515 47.3452 15.7155 47.2971 15.6671C47.2495 15.6192 47.2152 15.5596 47.2019 15.4934C47.169 15.3302 47.0803 15.1774 46.954 15.0778C46.846 14.9927 46.7097 14.9476 46.5584 14.973C46.3953 15.0005 46.2398 15.1059 46.1327 15.2301C46.097 15.2717 46.0689 15.3189 46.0407 15.3658C45.988 15.4535 45.9367 15.535 45.8639 15.5995C45.8363 15.624 45.7948 15.6409 45.7545 15.6409C45.7382 15.6409 45.7216 15.6383 45.7058 15.6333C45.5433 15.4691 45.5121 15.3446 45.5173 15.2211C45.5228 15.0916 45.5735 14.9604 45.6555 14.838C45.8477 14.551 46.2127 14.3157 46.4589 14.2624C46.7962 14.1894 47.1312 14.277 47.3997 14.4667C47.676 14.6619 47.8808 14.965 47.9446 15.3065C47.96 15.3888 47.9535 15.4776 47.9224 15.5546C47.892 15.6298 47.839 15.6942 47.7612 15.735ZM41.0013 12.1448C40.7989 12.3434 40.5594 12.3741 40.317 12.4015C40.1824 12.4168 40.0749 12.4292 39.9691 12.4533C39.6783 12.5194 39.3909 12.6189 39.1287 12.7623C38.8546 12.9122 38.5559 13.0929 38.341 13.3245C38.2899 13.3796 38.2417 13.4374 38.1935 13.4954C38.1495 13.5482 38.1072 13.5991 38.0625 13.6481C38.0112 13.7045 37.9625 13.7635 37.9141 13.8224C37.8841 13.8721 37.8782 13.8843 37.8722 13.897C37.8631 13.9161 37.8525 13.9375 37.8405 13.9605C37.824 13.9919 37.8046 14.0263 37.7844 14.0575C37.7507 14.1146 37.7326 14.1303 37.7169 14.1373C37.691 14.1489 37.6664 14.1547 37.6425 14.1516C37.6202 14.1486 37.5991 14.1378 37.5783 14.1201C37.4744 14.0317 37.4437 13.8866 37.4469 13.7325C37.4516 13.4988 37.5372 13.24 37.6161 13.0809C37.7996 12.7112 38.0541 12.3269 38.3601 12.051C38.7093 11.7361 39.0913 11.4977 39.5301 11.3334C39.8028 11.2313 40.1185 11.1375 40.4155 11.1494C40.6294 11.1579 40.8335 11.2219 41.0021 11.3818C41.1056 11.4799 41.1553 11.6195 41.1553 11.759C41.1553 11.9012 41.1037 12.0444 41.0013 12.1448ZM48.1728 13.9634C48.16 13.9847 48.1421 13.9993 48.1223 14.0081C48.1015 14.0173 48.0783 14.02 48.0561 14.0162C48.0339 14.0124 48.0128 14.0023 47.9961 13.9869C47.9801 13.972 47.9679 13.9524 47.9625 13.9283C47.8281 13.3339 47.5672 12.8917 47.0102 12.6065C46.7363 12.4662 46.4212 12.377 46.123 12.306C46.0363 12.2853 45.9448 12.2719 45.8525 12.2584C45.5635 12.2159 45.2724 12.1672 45.084 11.9319C44.9705 11.7902 44.9228 11.6089 44.9498 11.4432C44.9751 11.2871 45.0657 11.144 45.2303 11.0582C45.6401 10.8448 46.1494 11.0542 46.5633 11.2326C46.594 11.2459 46.6241 11.2588 46.6536 11.2714C47.0584 11.4434 47.4275 11.6705 47.7309 11.9953C47.9717 12.253 48.1948 12.6339 48.2846 13.0258C48.3593 13.3518 48.3418 13.6846 48.1728 13.9634Z" fill="#111111"/>
</svg>
