<?xml version="1.0" encoding="utf-8"?>
<!-- Generator: Adobe Illustrator 16.0.0, SVG Export Plug-In . SVG Version: 6.00 Build 0)  -->
<!DOCTYPE svg PUBLIC "-//W3C//DTD SVG 1.1//EN" "http://www.w3.org/Graphics/SVG/1.1/DTD/svg11.dtd">
<svg xmlns="http://www.w3.org/2000/svg" xmlns:xlink="http://www.w3.org/1999/xlink" version="1.1" id="Layer_1" x="0px" y="0px" width="130px" height="130px" viewBox="0 0 130 130" enable-background="new 0 0 130 130" xml:space="preserve">
<g>
	<circle fill="#FFFFFF" stroke="#2B2B2B" stroke-width="3" stroke-miterlimit="10" cx="65.506" cy="75.687" r="52.313"/>
	<path fill="none" stroke="#2B2B2B" stroke-width="3" stroke-linecap="round" stroke-linejoin="round" stroke-miterlimit="10" d="   M24.438,107.493C30.285,95.87,42.819,89.277,66.29,89.277c21.816,0,34.283,6.593,40.285,18.216"/>
	<path fill="none" stroke="#2B2B2B" stroke-width="3" stroke-miterlimit="10" d="M51.495,73.74"/>
	<polyline fill="#FFFFFF" stroke="#2B2B2B" stroke-width="3" stroke-miterlimit="10" points="79.998,96.263 79.998,67.817    51.495,67.817 51.495,96.263  "/>
	<path fill="#FFFFFF" stroke="#2B2B2B" stroke-width="3" stroke-miterlimit="10" d="M65.526,95.757"/>
	<path fill="#FFFFFF" stroke="#2B2B2B" stroke-width="3" stroke-miterlimit="10" d="M45.659,50.473   c1.005,6.028,0.239,10.085-3.048,10.159c-2.776,0.062-5.639-2.521-8.047-8.047c-2.438-5.601,0.161-11.502,3.404-12.042   C41.209,40.002,44.654,44.449,45.659,50.473z"/>
	<path fill="#FFFFFF" stroke="#2B2B2B" stroke-width="3" stroke-miterlimit="10" d="M84.333,50.473   c-1.002,6.028-0.237,10.085,3.05,10.159c2.776,0.062,5.64-2.521,8.046-8.047c2.439-5.601-0.159-11.502-3.403-12.042   C88.781,40.002,85.338,44.449,84.333,50.473z"/>
	<path fill="#FFFFFF" stroke="#2B2B2B" stroke-width="3" stroke-miterlimit="10" d="M88.604,44.443   c0,14.564-10.028,34.659-22.992,34.659c-12.962,0-23.951-20.095-23.951-34.659c0-14.564,0-26.371,23.471-26.371   C88.604,18.072,88.604,29.879,88.604,44.443z"/>
	<g>
		<path fill="none" stroke="#2B2B2B" stroke-width="3" stroke-linecap="round" stroke-linejoin="round" stroke-miterlimit="10" d="    M50.268,39.315c2.109-0.334,4.257-0.334,6.366,0"/>
	</g>
	
		<polyline fill="none" stroke="#2B2B2B" stroke-width="3" stroke-linecap="round" stroke-linejoin="round" stroke-miterlimit="10" points="   60.214,53.958 65.022,57.829 70.273,53.958  "/>
	
		<line fill="none" stroke="#2B2B2B" stroke-width="3" stroke-linecap="round" stroke-linejoin="round" stroke-miterlimit="10" x1="64.013" y1="46.022" x2="62.62" y2="55.893"/>
	<g>
		<path fill="none" stroke="#2B2B2B" stroke-width="3" stroke-linecap="round" stroke-linejoin="round" stroke-miterlimit="10" d="    M58.768,65.586c4.244,2.163,9.267,2.163,13.512,0"/>
	</g>
	<circle cx="53.732" cy="45.129" r="1.565" style="&#10;    fill: #2b2b2b;&#10;"/>
	<g>
		<path fill="none" stroke="#2B2B2B" stroke-width="3" stroke-linecap="round" stroke-linejoin="round" stroke-miterlimit="10" d="    M73.069,39.315c2.109-0.334,4.257-0.334,6.366,0"/>
	</g>
	<circle cx="76.535" cy="45.129" r="1.565" style="&#10;    fill: #2b2b2b;&#10;"/>
	<circle cx="65.746" cy="103.426" r="1.564" style="&#10;    fill: #2b2b2b;&#10;"/>
	
		<polygon fill="#FF5A5F" stroke="#2B2B2B" stroke-width="3" stroke-linecap="round" stroke-linejoin="round" stroke-miterlimit="10" points="   43.952,91.396 49.15,85.194 65.412,95.589 54.346,106.318  "/>
	<g>
		<g>
			<path d="M63.792,112.095c2.743-0.053,5.612-0.664,6.851-3.388c1.181-2.597,0.67-5.834,0.656-8.592     c-0.008-1.611-2.508-1.612-2.5,0c0.011,2.171,0.271,4.438-0.128,6.585c-0.459,2.475-2.685,2.853-4.879,2.895     C62.183,109.626,62.179,112.126,63.792,112.095L63.792,112.095z" style="&#10;    fill: #2b2b2b;&#10;"/>
		</g>
	</g>
	
		<polygon fill="#FF5A5F" stroke="#2B2B2B" stroke-width="3" stroke-linecap="round" stroke-linejoin="round" stroke-miterlimit="10" points="   87.655,91.396 82.457,85.194 66.195,95.589 77.258,106.318  "/>
	
		<path fill="#FF5A5F" stroke="#2B2B2B" stroke-width="3" stroke-linecap="round" stroke-linejoin="round" stroke-miterlimit="10" d="   M47.696,19.977c0.557,3.465,5.589,6.931,8.494,8.16c1.452,0.559,3.131,1.676,3.8,0.335c0.672-1.454-0.447-3.017,0.784-4.471   c3.019,2.012,4.806,5.588,8.494,6.818c4.136,1.23,1.676-3.689,2.683-6.036c3.131,1.229,4.806,4.137,8.382,4.806   c2.349,0.447,6.262,1.007,7.603-1.452c2.459,4.359-0.729,10.954,1.954,15.201c2.46-1.677,4.751-5.925,5.646-8.718   c0.222-0.895,1.005-2.348,0.558-3.243c-0.558-1.341-2.234-1.451-2.122-3.128c0.11-1.9,1.452-1.677,0-3.354   c-1.008-1.229-2.35-1.565-2.236-3.242c0.11-1.453,2.236-3.241,0.669-4.47c-1.117-1.006-3.239,0.671-4.245,0.112   c-1.229-0.671,0-4.694-0.896-6.035c-1.451-2.013-5.028-1.677-7.151-1.677c-1.229,0-2.348,0.224-3.355-0.56   c-1.341-1.007-1.227-3.017-2.682-3.8c-2.796-1.119-5.363,3.912-7.6,2.458c-1.789-1.117,0.557-7.712-4.024-4.694   c-2.236,1.453-4.359,7.153-7.266,5.477c-1.118-0.559-2.011-2.906-3.464-2.236c-0.894,0.447-1.229,2.794-1.678,3.689   c-0.781,1.341-1.789,2.57-2.682,3.799c-1.339,1.565-1.564,2.012-3.578,1.789c-3.018-0.224-4.024-0.224-4.024,3.129   c0,2.236,0.896,5.254-0.223,7.266c-0.894,1.564-2.234,1.788-2.683,3.911c-0.222,1.118-0.222,2.348-0.222,3.578   c0,3.128,1.118,5.252,2.905,7.822c0.56,0.672,1.119,1.455,1.789,2.125c1.453-3.13,1.564-6.595,3.575-9.724   c1.677-2.795,4.915-6.354,8.266-7.136"/>
</g>
</svg>