<?xml version="1.0" encoding="utf-8"?>
<!-- Generator: Adobe Illustrator 16.0.0, SVG Export Plug-In . SVG Version: 6.00 Build 0)  -->
<!DOCTYPE svg PUBLIC "-//W3C//DTD SVG 1.1//EN" "http://www.w3.org/Graphics/SVG/1.1/DTD/svg11.dtd">
<svg version="1.1" xmlns="http://www.w3.org/2000/svg" xmlns:xlink="http://www.w3.org/1999/xlink" x="0px" y="0px" width="130px"
	 height="130px" viewBox="0 0 130 130" enable-background="new 0 0 130 130" xml:space="preserve">
<g id="Layer_1">
	
		<path fill="#FFFFFF" stroke="#2B2B2B" stroke-width="3" stroke-linecap="round" stroke-linejoin="round" stroke-miterlimit="10" d="
		M120.781,68.755c0,15.739-5.778,30.048-15.19,40.671c-0.336-14.72-18.458-26.567-40.748-26.567
		c-22.298,0-40.413,11.848-40.748,26.567C14.674,98.803,8.904,84.494,8.904,68.755c0-32.792,25.041-59.367,55.939-59.367
		C95.732,9.388,120.781,35.963,120.781,68.755z"/>
	<path fill="none" stroke="#2B2B2B" stroke-width="3" stroke-miterlimit="10" d="M24.095,109.426
		c-0.009,0.136-0.009,0.283-0.009,0.42"/>
	<g>
		<path fill="#FFFFFF" stroke="#2B2B2B" stroke-width="3" stroke-miterlimit="10" d="M105.591,109.426
			c-10.202,11.513-24.683,18.697-40.748,18.697s-30.553-7.185-40.748-18.697c0.335-14.72,18.449-26.567,40.748-26.567
			C87.133,82.858,105.255,94.706,105.591,109.426z"/>
		<path fill="#FFFFFF" stroke="#2B2B2B" stroke-width="3" stroke-miterlimit="10" d="M64.841,105.41"/>
		<path fill="none" stroke="#2B2B2B" stroke-width="3" stroke-miterlimit="10" d="M105.6,109.846c0-0.137,0-0.284-0.009-0.42"/>
		
			<polygon fill="#FFFFFF" stroke="#2B2B2B" stroke-width="3" stroke-linecap="round" stroke-linejoin="round" stroke-miterlimit="10" points="
			73.979,64.5 79.625,83.215 64.841,94.841 50.056,83.342 55.703,64.5 		"/>
		<g>
			<g>
				<path fill="#FFFFFF" stroke="#2B2B2B" stroke-width="3" stroke-miterlimit="10" d="M45.228,43.745
					c0.287,1.833,0.46,3.561,0.413,5.062c-0.082,2.516-0.799,4.366-2.72,4.907c-2.859,0.806-5.362-2.688-7.173-7.298
					c-1.816-4.596-2.435-8.642,2.303-9.977l0.021-0.007C42.794,35.109,44.472,38.878,45.228,43.745z"/>
			</g>
			<g>
				<path fill="#FFFFFF" stroke="#2B2B2B" stroke-width="3" stroke-miterlimit="10" d="M83.706,43.745
					c-0.287,1.833-0.461,3.561-0.412,5.062c0.081,2.516,0.799,4.366,2.72,4.907c2.859,0.806,5.359-2.688,7.172-7.298
					c1.816-4.596,2.436-8.642-2.305-9.977l-0.021-0.007C86.14,35.109,84.461,38.878,83.706,43.745z"/>
			</g>
		</g>
		<path fill="#FFFFFF" stroke="#2B2B2B" stroke-width="3" stroke-miterlimit="10" d="M87.943,46.605
			c-2.845,15.679-8.331,28.579-23.559,28.579c-14.217,0-21.166-12.9-23.559-28.579c-2.387-15.63,0-28.575,23.559-28.575
			S90.768,31.036,87.943,46.605z"/>
		<g>
			<path fill="#FF5A5F" d="M49.558,18.386l6.921,5.3c0.874,0.668,2.26,0.71,3.082,0.091c0.822-0.619,2.317-0.759,3.322-0.312
				l3.933,1.749c1.005,0.447,2.222,0.004,2.704-0.985l0.545-1.118c0.482-0.989,1.666-1.365,2.631-0.837l5.917,3.241
				c0.965,0.528,2.569,0.58,3.566,0.114l1.189-0.556c0.997-0.466,2.048,0.022,2.336,1.083l2.611,9.636
				c0.288,1.062,0.755,1.171,1.038,0.243s0.72-2.563,0.971-3.634l0.879-3.754c0.251-1.071,0.456-2.808,0.456-3.86
				c0-1.052-0.635-2.55-1.41-3.33l-1.431-1.437c-0.775-0.78-1.41-2.185-1.41-3.123c0-0.938-0.599-1.705-1.331-1.705
				c-0.731,0-1.124-0.592-0.871-1.315c0.252-0.724-0.104-2.019-0.79-2.879l-0.493-0.527C83.237,9.613,81.775,9,80.676,9h-2.896
				c-1.1,0-2.448-0.637-2.996-1.305c-0.549-0.668-1.524-1.945-2.168-2.782s-2.033-1.286-3.087-0.97L65.075,5.22
				C64.021,5.536,63,4.883,63,3.783V3.733c0-1.1-0.648-1.603-1.636-1.118l-4.782,2.391c-0.987,0.485-2.397,0.729-3.181,0.541
				s-1.977,0.354-2.674,1.205l-3.13,3.828c-0.698,0.851-2.124,1.812-3.175,2.136l-1.689,0.576C41.681,13.615,41,14.78,41,15.88
				v3.433c0,1.1-0.769,2.678-1.493,3.506l-0.474,0.442c-0.725,0.828-1.214,2.394-1.034,3.479l1.277,7.841
				c0.18,1.085,0.91,1.297,1.636,0.47l12.206-13.907"/>
			<path fill="none" stroke="#2B2B2B" stroke-width="3" stroke-linecap="round" stroke-linejoin="round" stroke-miterlimit="10" d="
				M49.558,18.386l6.921,5.3c0.874,0.668,2.26,0.71,3.082,0.091c0.822-0.619,2.317-0.759,3.322-0.312l3.933,1.749
				c1.005,0.447,2.222,0.004,2.704-0.985l0.545-1.118c0.482-0.989,1.666-1.365,2.631-0.837l5.917,3.241
				c0.965,0.528,2.569,0.58,3.566,0.114l1.189-0.556c0.997-0.466,2.048,0.022,2.336,1.083l2.611,9.636
				c0.288,1.062,0.755,1.171,1.038,0.243s0.72-2.563,0.971-3.634l0.879-3.754c0.251-1.071,0.456-2.808,0.456-3.86
				c0-1.052-0.635-2.55-1.41-3.33l-1.431-1.437c-0.775-0.78-1.41-2.185-1.41-3.123c0-0.938-0.599-1.705-1.331-1.705
				c-0.731,0-1.124-0.592-0.871-1.315c0.252-0.724-0.104-2.019-0.79-2.879l-0.493-0.777C83.237,9.363,81.775,8.5,80.676,8.5h-2.896
				c-1.1,0-2.448-0.387-2.996-1.055c-0.549-0.668-1.524-1.82-2.168-2.657s-2.033-1.224-3.087-0.908l-4.204,1.308
				C64.271,5.504,63.5,4.883,63.5,3.783V3.733c0-1.1-0.898-1.603-1.886-1.118l-4.907,2.391c-0.987,0.485-2.459,0.729-3.244,0.541
				s-2.008,0.354-2.706,1.205l-3.146,3.828c-0.698,0.851-2.131,1.812-3.183,2.136l-1.943,0.576C41.435,13.615,40.5,14.78,40.5,15.88
				v3.433c0,1.1-0.519,2.678-1.243,3.506l-0.349,0.442c-0.725,0.828-1.151,2.394-0.971,3.479l1.309,7.841
				c0.18,1.085,0.926,1.297,1.652,0.47l12.214-13.907"/>
		</g>
		<g>
			
				<polyline fill="none" stroke="#2B2B2B" stroke-width="3" stroke-linecap="round" stroke-linejoin="round" stroke-miterlimit="10" points="
				68.02,51.1 64.483,54.175 60.941,51.1 			"/>
			
				<line fill="none" stroke="#2B2B2B" stroke-width="3" stroke-linecap="round" stroke-linejoin="round" stroke-miterlimit="10" x1="62.957" y1="52.645" x2="63.78" y2="46.481"/>
		</g>
		<g>
			<circle stroke="#2B2B2B" stroke-miterlimit="10" cx="74.02" cy="41.275" r="1.07"/>
		</g>
		<g>
			<circle stroke="#2B2B2B" stroke-miterlimit="10" cx="53.819" cy="41.275" r="1.07"/>
		</g>
		<g>
			<path fill="none" stroke="#2B2B2B" stroke-width="3" stroke-linecap="round" stroke-linejoin="round" stroke-miterlimit="10" d="
				M49.107,32.419c2.441-1.011,5.183-1.011,7.624,0"/>
		</g>
		<g>
			<path fill="none" stroke="#2B2B2B" stroke-width="3" stroke-linecap="round" stroke-linejoin="round" stroke-miterlimit="10" d="
				M70.485,32.419c2.442-1.011,5.185-1.011,7.627,0"/>
		</g>
		
			<polyline fill="#FFFFFF" stroke="#2B2B2B" stroke-width="3" stroke-linecap="round" stroke-linejoin="round" stroke-miterlimit="10" points="
			70.5,94 70.5,112.563 63.98,109.116 		"/>
		<g>
			
				<polygon fill="#FF5A5F" stroke="#2B2B2B" stroke-width="3" stroke-linecap="round" stroke-linejoin="round" stroke-miterlimit="10" points="
				54.767,103.759 43.428,87.304 48.267,81.912 64.998,93.942 			"/>
			
				<polygon fill="#FF5A5F" stroke="#2B2B2B" stroke-width="3" stroke-linecap="round" stroke-linejoin="round" stroke-miterlimit="10" points="
				74.914,103.759 86.255,87.304 81.414,81.912 64.685,93.942 			"/>
		</g>
		<g>
			<path d="M66.464,102.882c0,0.801-0.649,1.45-1.448,1.45c-0.806,0-1.455-0.649-1.455-1.45c0-0.804,0.648-1.452,1.455-1.452
				C65.815,101.43,66.464,102.078,66.464,102.882z"/>
		</g>
		
			<path fill="#FF5A5F" stroke="#FF5A5F" stroke-width="2" stroke-linecap="round" stroke-linejoin="round" stroke-miterlimit="10" d="
			M43.149,39.882c0.428,0.268,0.675,0.631,0.825,1.103c0.393,1.216,0.807,2.423,1.212,3.64c0.692,2.084,2.181,3.273,4.277,3.729
			c2.56,0.553,5.104,0.245,7.617-0.31c1.925-0.424,3.422-1.771,4.107-3.69c0.48-1.342,0.861-2.427,1.285-3.791
			c0.248-0.799,0.599-1.117,1.424-1.202c0.252-0.024,0.505-0.02,0.758-0.017c1.208,0.009,1.578,0.347,1.909,1.514
			c0.361,1.278,0.645,2.593,1.212,3.792c0.868,1.846,2.029,2.694,4.053,3.37c1.542,0.514,2.999,0.708,4.626,0.708
			c1.254,0,2.655-0.188,3.813-0.593c1.521-0.531,2.694-1.461,3.271-3.006c0.532-1.431,0.999-2.89,1.528-4.325
			c0.107-0.293,0.321-0.62,0.58-0.778c0.431-0.26,0.551-0.604,0.551-1.051c0-0.267-0.031-0.539-0.005-0.807
			c0.055-0.55-0.202-0.794-0.721-0.884c-2.093-0.364-4.162-0.864-6.266-1.098c-4.215-0.477-8.37-0.272-12.354,1.45
			c-1.548,0.669-3.229,0.639-4.79-0.011c-2.819-1.167-5.735-1.716-8.715-1.629c-3.099-0.064-6.065,0.449-9.02,1.104
			c-1.665,0.367-1.829,0.543-1.536,2.224C42.829,39.529,42.977,39.773,43.149,39.882z M68.833,37.747
			c1.332-0.67,2.772-0.933,4.235-1.08c3.071-0.31,6.097-0.083,9.044,0.858c1.378,0.442,1.848,1.084,1.839,2.54
			c-0.008,1.901-0.315,3.748-1.19,5.467c-0.442,0.872-1.138,1.442-2.029,1.796c-1.355,0.537-2.773,0.701-4.289,0.726
			c-1.729-0.033-3.476-0.324-5.151-1.016c-0.896-0.372-1.639-0.929-2.165-1.752c-0.998-1.556-1.682-3.221-1.753-5.097
			C67.327,39.063,67.824,38.257,68.833,37.747z M45.002,39.928c0.031-1.313,0.489-1.935,1.73-2.369
			c2.203-0.771,4.501-0.966,6.841-1.036c1.951,0.063,3.914,0.199,5.793,0.896c0.269,0.101,0.526,0.225,0.781,0.352
			c1.018,0.501,1.503,1.34,1.433,2.457c-0.139,2.182-0.898,4.14-2.348,5.782c-0.727,0.822-1.76,1.159-2.787,1.451
			c-2.534,0.728-5.077,0.811-7.627,0.086c-1.453-0.414-2.449-1.298-2.967-2.721C45.274,43.245,44.959,41.615,45.002,39.928z"/>
		<g>
			<path fill="none" stroke="#2B2B2B" stroke-width="3" stroke-linecap="round" stroke-linejoin="round" stroke-miterlimit="10" d="
				M59.796,64.727c2.875,1.464,6.277,1.464,9.152,0"/>
		</g>
	</g>
</g>
<g id="Layer_2">
	<path display="none" fill="none" stroke="#2B2B2B" stroke-width="3" stroke-miterlimit="10" d="M176.096,109.426
		c-0.01,0.136-0.01,0.283-0.01,0.42"/>
	<g display="none">
		<path display="inline" fill="#FFFFFF" stroke="#2B2B2B" stroke-width="3" stroke-miterlimit="10" d="M257.591,109.426
			c-10.202,11.513-24.683,18.697-40.748,18.697s-30.554-7.185-40.747-18.697c0.334-14.72,18.449-26.567,40.747-26.567
			C239.133,82.858,257.255,94.706,257.591,109.426z"/>
		<path display="inline" fill="#FFFFFF" stroke="#2B2B2B" stroke-width="3" stroke-miterlimit="10" d="M216.841,105.41"/>
		<path display="inline" fill="none" stroke="#2B2B2B" stroke-width="3" stroke-miterlimit="10" d="M257.6,109.846
			c0-0.137,0-0.284-0.009-0.42"/>
		
			<polygon display="inline" fill="#FFFFFF" stroke="#2B2B2B" stroke-width="3" stroke-linecap="round" stroke-linejoin="round" stroke-miterlimit="10" points="
			225.979,64.5 231.625,83.215 216.841,94.841 202.056,83.342 207.703,64.5 		"/>
		<g display="inline">
			<g>
				<path fill="#FFFFFF" stroke="#2B2B2B" stroke-width="3" stroke-miterlimit="10" d="M197.228,43.745
					c0.287,1.833,0.46,3.561,0.413,5.062c-0.082,2.516-0.799,4.366-2.721,4.907c-2.859,0.806-5.361-2.688-7.172-7.298
					c-1.816-4.596-2.436-8.642,2.303-9.977l0.021-0.007C194.795,35.109,196.473,38.878,197.228,43.745z"/>
			</g>
			<g>
				<path fill="#FFFFFF" stroke="#2B2B2B" stroke-width="3" stroke-miterlimit="10" d="M235.706,43.745
					c-0.287,1.833-0.461,3.561-0.412,5.062c0.081,2.516,0.799,4.366,2.72,4.907c2.859,0.806,5.359-2.688,7.172-7.298
					c1.816-4.596,2.436-8.642-2.305-9.977l-0.021-0.007C238.14,35.109,236.461,38.878,235.706,43.745z"/>
			</g>
		</g>
		<path display="inline" fill="#FFFFFF" stroke="#2B2B2B" stroke-width="3" stroke-miterlimit="10" d="M239.943,46.605
			c-2.845,15.679-8.331,28.579-23.559,28.579c-14.217,0-21.166-12.9-23.559-28.579c-2.387-15.63,0-28.575,23.559-28.575
			S242.768,31.036,239.943,46.605z"/>
		<g display="inline">
			<path fill="#FF5A5F" d="M201.559,18.386l6.921,5.3c0.873,0.668,2.261,0.71,3.083,0.091c0.821-0.619,2.316-0.759,3.321-0.312
				l3.933,1.749c1.005,0.447,2.222,0.004,2.704-0.985l0.545-1.118c0.482-0.989,1.666-1.365,2.631-0.837l5.917,3.241
				c0.965,0.528,2.569,0.58,3.566,0.114l1.189-0.556c0.997-0.466,2.048,0.022,2.336,1.083l2.611,9.636
				c0.288,1.062,0.755,1.171,1.038,0.243s0.72-2.563,0.971-3.634l0.879-3.754c0.251-1.071,0.456-2.808,0.456-3.86
				c0-1.052-0.635-2.55-1.41-3.33l-1.431-1.437c-0.775-0.78-1.41-2.185-1.41-3.123c0-0.938-0.599-1.705-1.331-1.705
				c-0.731,0-1.124-0.592-0.871-1.315c0.252-0.724-0.104-2.019-0.79-2.879l-0.493-0.527C235.237,9.613,233.775,9,232.676,9h-2.896
				c-1.1,0-2.448-0.637-2.996-1.305c-0.549-0.668-1.524-1.945-2.168-2.782s-2.033-1.286-3.087-0.97l-4.453,1.277
				C216.021,5.536,215,4.883,215,3.783V3.733c0-1.1-0.648-1.603-1.636-1.118l-4.782,2.391c-0.986,0.485-2.396,0.729-3.181,0.541
				s-1.977,0.354-2.674,1.205l-3.131,3.828c-0.697,0.851-2.124,1.812-3.175,2.136l-1.689,0.576C193.682,13.615,193,14.78,193,15.88
				v3.433c0,1.1-0.77,2.678-1.492,3.506l-0.475,0.442c-0.725,0.828-1.213,2.394-1.033,3.479l1.277,7.841
				c0.18,1.085,0.909,1.297,1.635,0.47l12.207-13.907"/>
			<path fill="none" stroke="#2B2B2B" stroke-width="3" stroke-linecap="round" stroke-linejoin="round" stroke-miterlimit="10" d="
				M201.559,18.386l6.921,5.3c0.873,0.668,2.261,0.71,3.083,0.091c0.821-0.619,2.316-0.759,3.321-0.312l3.933,1.749
				c1.005,0.447,2.222,0.004,2.704-0.985l0.545-1.118c0.482-0.989,1.666-1.365,2.631-0.837l5.917,3.241
				c0.965,0.528,2.569,0.58,3.566,0.114l1.189-0.556c0.997-0.466,2.048,0.022,2.336,1.083l2.611,9.636
				c0.288,1.062,0.755,1.171,1.038,0.243s0.72-2.563,0.971-3.634l0.879-3.754c0.251-1.071,0.456-2.808,0.456-3.86
				c0-1.052-0.635-2.55-1.41-3.33l-1.431-1.437c-0.775-0.78-1.41-2.185-1.41-3.123c0-0.938-0.599-1.705-1.331-1.705
				c-0.731,0-1.124-0.592-0.871-1.315c0.252-0.724-0.104-2.019-0.79-2.879l-0.493-0.777c-0.687-0.86-2.148-1.723-3.248-1.723h-2.896
				c-1.1,0-2.448-0.387-2.996-1.055c-0.549-0.668-1.524-1.82-2.168-2.657s-2.033-1.224-3.087-0.908l-4.203,1.308
				c-1.054,0.316-1.825-0.306-1.825-1.406V3.733c0-1.1-0.898-1.603-1.886-1.118l-4.907,2.391c-0.986,0.485-2.459,0.729-3.243,0.541
				s-2.008,0.354-2.705,1.205l-3.146,3.828c-0.697,0.851-2.132,1.812-3.183,2.136l-1.943,0.576
				c-1.051,0.324-1.986,1.489-1.986,2.589v3.433c0,1.1-0.52,2.678-1.242,3.506l-0.35,0.442c-0.725,0.828-1.15,2.394-0.971,3.479
				l1.309,7.841c0.18,1.085,0.925,1.297,1.65,0.47l12.215-13.907"/>
		</g>
		<g display="inline">
			
				<polyline fill="none" stroke="#2B2B2B" stroke-width="3" stroke-linecap="round" stroke-linejoin="round" stroke-miterlimit="10" points="
				220.02,51.1 216.483,54.175 212.941,51.1 			"/>
			
				<line fill="none" stroke="#2B2B2B" stroke-width="3" stroke-linecap="round" stroke-linejoin="round" stroke-miterlimit="10" x1="214.957" y1="52.645" x2="215.78" y2="46.481"/>
		</g>
		<g display="inline">
			<circle stroke="#2B2B2B" stroke-miterlimit="10" cx="226.02" cy="41.275" r="1.07"/>
		</g>
		<g display="inline">
			<circle stroke="#2B2B2B" stroke-miterlimit="10" cx="205.819" cy="41.275" r="1.069"/>
		</g>
		<g display="inline">
			<path fill="none" stroke="#2B2B2B" stroke-width="3" stroke-linecap="round" stroke-linejoin="round" stroke-miterlimit="10" d="
				M201.106,32.419c2.441-1.011,5.184-1.011,7.625,0"/>
		</g>
		<g display="inline">
			<path fill="none" stroke="#2B2B2B" stroke-width="3" stroke-linecap="round" stroke-linejoin="round" stroke-miterlimit="10" d="
				M222.485,32.419c2.442-1.011,5.185-1.011,7.627,0"/>
		</g>
		
			<polyline display="inline" fill="#FFFFFF" stroke="#2B2B2B" stroke-width="3" stroke-linecap="round" stroke-linejoin="round" stroke-miterlimit="10" points="
			222.5,94 222.5,112.563 215.98,109.116 		"/>
		<g display="inline">
			
				<polygon fill="#FF5A5F" stroke="#2B2B2B" stroke-width="3" stroke-linecap="round" stroke-linejoin="round" stroke-miterlimit="10" points="
				206.768,103.759 195.428,87.304 200.267,81.912 216.998,93.942 			"/>
			
				<polygon fill="#FF5A5F" stroke="#2B2B2B" stroke-width="3" stroke-linecap="round" stroke-linejoin="round" stroke-miterlimit="10" points="
				226.914,103.759 238.255,87.304 233.414,81.912 216.685,93.942 			"/>
		</g>
		<g display="inline">
			<path d="M218.464,102.882c0,0.801-0.649,1.45-1.448,1.45c-0.806,0-1.454-0.649-1.454-1.45c0-0.804,0.648-1.452,1.454-1.452
				C217.814,101.43,218.464,102.078,218.464,102.882z"/>
		</g>
		
			<path display="inline" fill="#FF5A5F" stroke="#FF5A5F" stroke-width="2" stroke-linecap="round" stroke-linejoin="round" stroke-miterlimit="10" d="
			M195.148,39.882c0.428,0.268,0.676,0.631,0.826,1.103c0.393,1.216,0.807,2.423,1.212,3.64c0.692,2.084,2.181,3.273,4.276,3.729
			c2.561,0.553,5.104,0.245,7.617-0.31c1.926-0.424,3.422-1.771,4.107-3.69c0.48-1.342,0.861-2.427,1.285-3.791
			c0.248-0.799,0.599-1.117,1.424-1.202c0.252-0.024,0.505-0.02,0.758-0.017c1.208,0.009,1.578,0.347,1.909,1.514
			c0.361,1.278,0.645,2.593,1.212,3.792c0.868,1.846,2.029,2.694,4.053,3.37c1.542,0.514,2.999,0.708,4.626,0.708
			c1.254,0,2.655-0.188,3.813-0.593c1.521-0.531,2.694-1.461,3.271-3.006c0.532-1.431,0.999-2.89,1.528-4.325
			c0.107-0.293,0.321-0.62,0.58-0.778c0.431-0.26,0.551-0.604,0.551-1.051c0-0.267-0.031-0.539-0.005-0.807
			c0.055-0.55-0.202-0.794-0.721-0.884c-2.093-0.364-4.162-0.864-6.266-1.098c-4.215-0.477-8.37-0.272-12.354,1.45
			c-1.549,0.669-3.229,0.639-4.789-0.011c-2.82-1.167-5.735-1.716-8.716-1.629c-3.099-0.064-6.065,0.449-9.021,1.104
			c-1.664,0.367-1.828,0.543-1.535,2.224C194.829,39.529,194.977,39.773,195.148,39.882z M220.833,37.747
			c1.332-0.67,2.772-0.933,4.235-1.08c3.071-0.31,6.097-0.083,9.044,0.858c1.378,0.442,1.848,1.084,1.839,2.54
			c-0.008,1.901-0.315,3.748-1.19,5.467c-0.442,0.872-1.138,1.442-2.029,1.796c-1.355,0.537-2.773,0.701-4.289,0.726
			c-1.729-0.033-3.476-0.324-5.151-1.016c-0.896-0.372-1.639-0.929-2.165-1.752c-0.998-1.556-1.682-3.221-1.753-5.097
			C219.327,39.063,219.824,38.257,220.833,37.747z M197.002,39.928c0.031-1.313,0.489-1.935,1.73-2.369
			c2.203-0.771,4.501-0.966,6.84-1.036c1.951,0.063,3.914,0.199,5.793,0.896c0.27,0.101,0.526,0.225,0.781,0.352
			c1.019,0.501,1.504,1.34,1.434,2.457c-0.14,2.182-0.898,4.14-2.348,5.782c-0.727,0.822-1.761,1.159-2.787,1.451
			c-2.534,0.728-5.076,0.811-7.627,0.086c-1.453-0.414-2.449-1.298-2.967-2.721C197.273,43.245,196.959,41.615,197.002,39.928z"/>
		<g display="inline">
			<path fill="none" stroke="#2B2B2B" stroke-width="3" stroke-linecap="round" stroke-linejoin="round" stroke-miterlimit="10" d="
				M211.796,64.727c2.875,1.464,6.277,1.464,9.152,0"/>
		</g>
	</g>
</g>
</svg>
